<svg width="120" height="120" viewBox="0 0 120 120" fill="none" xmlns="http://www.w3.org/2000/svg">
  <defs>
    <!-- 闪电主体渐变 -->
    <linearGradient id="lightningGradient" x1="40" y1="20" x2="90" y2="100" gradientUnits="userSpaceOnUse">
      <stop offset="0%" style="stop-color:oklch(75% 0.256 278.873);stop-opacity:1" />
      <stop offset="50%" style="stop-color:oklch(60% 0.25602 278.873);stop-opacity:1" />
      <stop offset="100%" style="stop-color:oklch(49.085% 0.25602 278.873);stop-opacity:1" />
    </linearGradient>
    
    <!-- 高光渐变（左上） -->
    <linearGradient id="highlightGradient" x1="50" y1="30" x2="70" y2="50" gradientUnits="userSpaceOnUse">
      <stop offset="0%" style="stop-color:#FFFFFF;stop-opacity:0.6" />
      <stop offset="100%" style="stop-color:#FFFFFF;stop-opacity:0" />
    </linearGradient>
    
    <!-- 阴影渐变（右下） -->
    <linearGradient id="shadowGradient" x1="60" y1="70" x2="80" y2="90" gradientUnits="userSpaceOnUse">
      <stop offset="0%" style="stop-color:#000000;stop-opacity:0" />
      <stop offset="100%" style="stop-color:#000000;stop-opacity:0.25" />
    </linearGradient>
    
    <!-- 发光效果 -->
    <filter id="glow" x="-50%" y="-50%" width="200%" height="200%">
      <feGaussianBlur in="SourceGraphic" stdDeviation="3.5" result="blur"/>
      <feColorMatrix in="blur" type="matrix" 
                     values="1 0 0 0 0
                             0 1 0 0 0
                             0 0 1 0 0
                             0 0 0 1.8 0" result="glow"/>
      <feMerge>
        <feMergeNode in="glow"/>
        <feMergeNode in="SourceGraphic"/>
      </feMerge>
    </filter>
    
    <!-- 高斯模糊 -->
    <filter id="blur-soft" x="-50%" y="-50%" width="200%" height="200%">
      <feGaussianBlur in="SourceGraphic" stdDeviation="1.5"/>
    </filter>
    
    <filter id="blur-light" x="-50%" y="-50%" width="200%" height="200%">
      <feGaussianBlur in="SourceGraphic" stdDeviation="0.8"/>
    </filter>
  </defs>
  
  <!-- 外框 -->
  <path fill-rule="evenodd" clip-rule="evenodd" d="M0 30C0 15.8579 0 8.7868 4.3934 4.3934C8.7868 0 15.8579 0 30 0H90C104.142 0 111.213 0 115.607 4.3934C120 8.7868 120 15.8579 120 30V90C120 104.142 120 111.213 115.607 115.607C111.213 120 104.142 120 90 120H30C15.8579 120 8.7868 120 4.3934 115.607C0 111.213 0 104.142 0 90V30ZM30 7.5H90C97.2831 7.5 101.991 7.51593 105.46 7.9823C108.713 8.41966 109.732 9.12577 110.303 9.6967C110.874 10.2676 111.58 11.2872 112.018 14.5403C112.484 18.0091 112.5 22.7169 112.5 30V90C112.5 97.2831 112.484 101.991 112.018 105.46C111.58 108.713 110.874 109.732 110.303 110.303C109.732 110.874 108.713 111.58 105.46 112.018C101.991 112.484 97.2831 112.5 90 112.5H30C22.7169 112.5 18.0091 112.484 14.5403 112.018C11.2872 111.58 10.2676 110.874 9.6967 110.303C9.12577 109.732 8.41966 108.713 7.9823 105.46C7.51593 101.991 7.5 97.2831 7.5 90V30C7.5 22.7169 7.51593 18.0091 7.9823 14.5403C8.41966 11.2872 9.12577 10.2676 9.6967 9.6967C10.2676 9.12577 11.2872 8.41966 14.5403 7.9823C18.0091 7.51593 22.7169 7.5 30 7.5Z" fill="oklch(55% 0.25602 278.873)"/>
  
  <!-- 闪电背景光晕 -->
  <path d="M40.3547 65.8357C41.0395 66.2291 42.4352 66.2291 45.2265 66.2291C47.2416 66.2291 48.2491 66.2291 48.8707 66.5374C49.9838 67.0895 50.6337 68.2779 50.498 69.513C50.4222 70.2027 49.8787 71.051 48.7915 72.7476L33.7617 96.2033C31.6516 99.4963 30.5966 101.143 31.0837 101.562C31.5708 101.981 33.0417 100.693 35.9834 98.1155L78.4118 60.9449C80.4771 59.1355 81.5098 58.2308 81.7674 57.4966C82.2422 56.1431 81.6784 54.6438 80.4292 53.9386C79.7518 53.5561 78.3788 53.5561 75.633 53.5561C73.6442 53.5561 72.6498 53.5561 72.0349 53.2557C70.9061 52.7044 70.2481 51.5006 70.3936 50.2527C70.4729 49.573 71.0098 48.736 72.0836 47.0622L87.0425 23.7457C89.1439 20.4701 90.1946 18.8323 89.7085 18.4128C89.2223 17.9933 87.756 19.2725 84.8235 21.8309L42.443 58.8044C40.3396 60.6395 39.288 61.557 39.0305 62.3037C38.5677 63.6462 39.1233 65.1283 40.3547 65.8357Z" 
        fill="oklch(70% 0.25602 278.873)" opacity="0.4" filter="url(#blur-soft)"/>
  
  <!-- 闪电主体（带渐变） -->
  <path d="M40.3547 65.8357C41.0395 66.2291 42.4352 66.2291 45.2265 66.2291C47.2416 66.2291 48.2491 66.2291 48.8707 66.5374C49.9838 67.0895 50.6337 68.2779 50.498 69.513C50.4222 70.2027 49.8787 71.051 48.7915 72.7476L33.7617 96.2033C31.6516 99.4963 30.5966 101.143 31.0837 101.562C31.5708 101.981 33.0417 100.693 35.9834 98.1155L78.4118 60.9449C80.4771 59.1355 81.5098 58.2308 81.7674 57.4966C82.2422 56.1431 81.6784 54.6438 80.4292 53.9386C79.7518 53.5561 78.3788 53.5561 75.633 53.5561C73.6442 53.5561 72.6498 53.5561 72.0349 53.2557C70.9061 52.7044 70.2481 51.5006 70.3936 50.2527C70.4729 49.573 71.0098 48.736 72.0836 47.0622L87.0425 23.7457C89.1439 20.4701 90.1946 18.8323 89.7085 18.4128C89.2223 17.9933 87.756 19.2725 84.8235 21.8309L42.443 58.8044C40.3396 60.6395 39.288 61.557 39.0305 62.3037C38.5677 63.6462 39.1233 65.1283 40.3547 65.8357Z" 
        fill="url(#lightningGradient)"/>
  

  <!-- 闪电整体发光 -->
  <path d="M40.3547 65.8357C41.0395 66.2291 42.4352 66.2291 45.2265 66.2291C47.2416 66.2291 48.2491 66.2291 48.8707 66.5374C49.9838 67.0895 50.6337 68.2779 50.498 69.513C50.4222 70.2027 49.8787 71.051 48.7915 72.7476L33.7617 96.2033C31.6516 99.4963 30.5966 101.143 31.0837 101.562C31.5708 101.981 33.0417 100.693 35.9834 98.1155L78.4118 60.9449C80.4771 59.1355 81.5098 58.2308 81.7674 57.4966C82.2422 56.1431 81.6784 54.6438 80.4292 53.9386C79.7518 53.5561 78.3788 53.5561 75.633 53.5561C73.6442 53.5561 72.6498 53.5561 72.0349 53.2557C70.9061 52.7044 70.2481 51.5006 70.3936 50.2527C70.4729 49.573 71.0098 48.736 72.0836 47.0622L87.0425 23.7457C89.1439 20.4701 90.1946 18.8323 89.7085 18.4128C89.2223 17.9933 87.756 19.2725 84.8235 21.8309L42.443 58.8044C40.3396 60.6395 39.288 61.557 39.0305 62.3037C38.5677 63.6462 39.1233 65.1283 40.3547 65.8357Z" 
        fill="none" stroke="oklch(75% 0.256 278.873)" stroke-width="0.5" 
        opacity="0.7" filter="url(#glow)"/>
  
  <!-- 额外的强光辉效果 -->
  <path d="M40.3547 65.8357C41.0395 66.2291 42.4352 66.2291 45.2265 66.2291C47.2416 66.2291 48.2491 66.2291 48.8707 66.5374C49.9838 67.0895 50.6337 68.2779 50.498 69.513C50.4222 70.2027 49.8787 71.051 48.7915 72.7476L33.7617 96.2033C31.6516 99.4963 30.5966 101.143 31.0837 101.562C31.5708 101.981 33.0417 100.693 35.9834 98.1155L78.4118 60.9449C80.4771 59.1355 81.5098 58.2308 81.7674 57.4966C82.2422 56.1431 81.6784 54.6438 80.4292 53.9386C79.7518 53.5561 78.3788 53.5561 75.633 53.5561C73.6442 53.5561 72.6498 53.5561 72.0349 53.2557C70.9061 52.7044 70.2481 51.5006 70.3936 50.2527C70.4729 49.573 71.0098 48.736 72.0836 47.0622L87.0425 23.7457C89.1439 20.4701 90.1946 18.8323 89.7085 18.4128C89.2223 17.9933 87.756 19.2725 84.8235 21.8309L42.443 58.8044C40.3396 60.6395 39.288 61.557 39.0305 62.3037C38.5677 63.6462 39.1233 65.1283 40.3547 65.8357Z" 
        fill="oklch(85% 0.2 278.873)" opacity="0.3" filter="url(#blur-light)"/>
</svg>